<svg id="Layer_1" data-name="Layer 1" xmlns="http://www.w3.org/2000/svg" viewBox="0 0 189.7 236.91"><defs><style>.cls-1{fill:#544d4e;}</style></defs><path class="cls-1" d="M76.4,92.32a102.36,102.36,0,0,0,15.4,11.84c5.45,3.29,6.13,3.37,5.17,9.72a26.61,26.61,0,0,1-1.69,6.43c-2.18,5.17-4.54,10.27-7,15.34A34.85,34.85,0,0,0,85.13,157c.15.89.43,1.77.61,2.67s.29,1.76.52,3.14c-5.56-6.58-7.51-13.74-7.77-21.53q-.57-17.25-1.28-34.48a56.28,56.28,0,0,0-.67-5.62c.4-1.13,1.4-1.46,1.86-.58a22.52,22.52,0,0,1,3.35,7.49c1.19,5.61,1.67,11.36,2.46,17,.14,1,.36,2,.54,3l1-.19c-.14-8.75-1-17.39-4.59-25.55-1.12-2.55-3-4.44-6.5-4.25.34,2.44.83,4.61.93,6.8.5,11.09,1.19,22.19,1.27,33.29.07,10.21,2.62,19.33,9.27,27.21,1.92,2.28,3.6,4.77,5.39,7.16-1.24-5.45-3.46-10.31-4.7-15.42-2.36-9.76,1.37-18.4,5.45-27.07,2.66-5.65,4.39-11.76,6.19-17.78a6.48,6.48,0,0,0-3-7.47,127.31,127.31,0,0,1-16.13-11,18.52,18.52,0,0,1-4.82-6.38c-.34-1,.09-1.43,1.15-1.34,6.33,7,14.48,11,22.92,14.7,5.91,2.56,8.74,7.15,9,13.86,1.17,26.49-4.67,50.78-16.79,74.3l-.2,2.7c14.59-26.71,21.14-56.06,17.65-86.28-.72-6.24-3.68-11.54-7-16.82C96.19,80.4,91.64,71.9,86.91,63.51c-1-1.79-1.82-3.68-3.14-6.36-4.67,7.61.27,14.6,1.65,21l-9.91-9.06c-.39,1.29-1.16,3.86-.59,5.36A35.46,35.46,0,0,0,81.7,85.08c2.7,3.12,6.07,5.65,9.14,8.45l1-1.12a73.65,73.65,0,0,1-6.9-6.15,121.08,121.08,0,0,1-8.3-10.58c-.95-1.33-2.25-3.59.79-3.64a8.8,8.8,0,0,1,1.14,1c8,8.24,15.76,16.14,23.68,24.46,1.66,1.74,2.78,4,4.14,6-11.12-7-24.25-10.37-32.61-21.56C72.92,86.36,73.29,89.51,76.4,92.32Zm7.13-30.24a.55.55,0,0,1,1-.28c6.2,11,12.45,22.83,18.65,33.71C93.56,86.39,83.59,76.5,83.53,62.08Z" transform="translate(0 0)"/><path class="cls-1" d="M21.81,29.29a1.06,1.06,0,0,1,.72,0,1.8,1.8,0,0,1,.7.45c.24.23.53.53.86.91l4,4.52c.33.38.59.7.79,1a1.74,1.74,0,0,1,.35.75,1.15,1.15,0,0,1-.11.7,3.75,3.75,0,0,1-.63.82l.14.16.94-.9,1-.88,1-.89L32.62,35l-.14-.16a3.59,3.59,0,0,1-.92.54,1.12,1.12,0,0,1-.72,0,1.8,1.8,0,0,1-.7-.45,11.54,11.54,0,0,1-.86-.91l-2.14-2.44,5-4.4,2.13,2.43c.34.38.6.7.8,1a1.9,1.9,0,0,1,.35.76,1.08,1.08,0,0,1-.12.7,3.35,3.35,0,0,1-.62.81l.14.17c.31-.31.62-.61.94-.9l1-.88,1-.89,1.07-.86-.15-.16a4.27,4.27,0,0,1-.91.54,1.12,1.12,0,0,1-.72,0,1.83,1.83,0,0,1-.71-.45,11.62,11.62,0,0,1-.86-.91l-4-4.51c-.34-.38-.6-.71-.8-1a1.93,1.93,0,0,1-.35-.75,1.07,1.07,0,0,1,.1-.7,3.7,3.7,0,0,1,.62-.8L31,20.69l-.84.81c-.29.27-.58.54-.88.8l-1.11.95L27,24.18l.14.16a4.13,4.13,0,0,1,.9-.53,1.12,1.12,0,0,1,.72,0,1.91,1.91,0,0,1,.71.44c.24.23.53.54.86.91l1.45,1.65-5,4.41-1.45-1.65c-.33-.38-.6-.7-.79-1a1.83,1.83,0,0,1-.36-.75,1,1,0,0,1,.11-.7,3.85,3.85,0,0,1,.61-.8l-.14-.16L23.9,27l-.89.8c-.37.33-.75.65-1.11,1s-.74.61-1.14.92l.14.16A3.85,3.85,0,0,1,21.81,29.29Z" transform="translate(0 0)"/><path class="cls-1" d="M35.75,18a1.06,1.06,0,0,1,.71.09,1.79,1.79,0,0,1,.61.57c.2.26.43.61.7,1l3.14,5.13a12.49,12.49,0,0,1,.61,1.09,1.79,1.79,0,0,1,.23.8,1,1,0,0,1-.22.66,3.83,3.83,0,0,1-.76.7l.11.18c.29-.2.57-.4.87-.59s.58-.38.88-.56l5.77-3.54.54-.31c.19-.1.38-.2.57-.28L49,19l-.25,0a12.32,12.32,0,0,1-.32,1.93,6.27,6.27,0,0,1-.62,1.56,5.51,5.51,0,0,1-1,1.31,9.62,9.62,0,0,1-1.55,1.16,5.42,5.42,0,0,1-.48.26c-.17.09-.34.16-.51.24l-.46.2-.38.15L40.5,21l1-.6a7.36,7.36,0,0,1,1.11-.57,2,2,0,0,1,.92-.16,1.87,1.87,0,0,1,.88.31,5.68,5.68,0,0,1,1,.84l.18-.11-.69-1.09-.7-1.1c-.22-.36-.43-.72-.65-1.1l-.66-1.11-.19.11a2.41,2.41,0,0,1,.19,2,3.43,3.43,0,0,1-1.42,1.45c-.21.13-.4.25-.58.38s-.38.25-.58.38l-2.36-3.84q1-.75,2.1-1.41a6.61,6.61,0,0,1,1.16-.58,3.18,3.18,0,0,1,1.17-.24,3,3,0,0,1,1.22.26,4.46,4.46,0,0,1,1.26.88l.17-.19-.53-.72c-.16-.21-.31-.44-.45-.66l-.38-.62-.19-.32-.18-.35-2.15,1.38L39,15.58l-1.27.78L36.65,17l-1,.57-1,.58.11.18A3.83,3.83,0,0,1,35.75,18Z" transform="translate(0 0)"/><path class="cls-1" d="M48.84,10.57a1.12,1.12,0,0,1,.71.17,1.85,1.85,0,0,1,.54.64,11.56,11.56,0,0,1,.56,1.12L53.15,18c.2.45.36.84.47,1.15a1.85,1.85,0,0,1,.12.83,1.05,1.05,0,0,1-.31.63,3.64,3.64,0,0,1-.83.6l.08.2,1.16-.59L55,20.23l1.25-.55,1.27-.52L57.46,19a4.07,4.07,0,0,1-1,.25,1.07,1.07,0,0,1-.71-.18,1.82,1.82,0,0,1-.54-.63c-.16-.29-.35-.66-.56-1.12l-2.49-5.47c-.21-.46-.37-.84-.48-1.15a1.88,1.88,0,0,1-.13-.83,1.09,1.09,0,0,1,.3-.63,3.79,3.79,0,0,1,.82-.59l-.09-.2-1,.54-1.07.51-1.34.59-1.36.56.09.19A4.21,4.21,0,0,1,48.84,10.57Z" transform="translate(0 0)"/><path class="cls-1" d="M57.51,6.73a1.23,1.23,0,0,1,.62.17,1,1,0,0,1,.37.42,4.74,4.74,0,0,1,.24.65l2.44,8a1.55,1.55,0,0,1,.07.43.89.89,0,0,1-.11.46,1.51,1.51,0,0,1-.42.48,3.36,3.36,0,0,1-.84.46l.06.21c.38-.14.76-.28,1.14-.4l1.14-.38L63,17l.9-.26c.33-.11.72-.22,1.17-.35l1.59-.48a9.79,9.79,0,0,0,2.23-1,5.93,5.93,0,0,0,1.68-1.54,5,5,0,0,0,.87-2.08,5.52,5.52,0,0,0-.23-2.59,6.36,6.36,0,0,0-1.31-2.39,6.25,6.25,0,0,0-2-1.49,7,7,0,0,0-2.52-.57,8.25,8.25,0,0,0-2.75.37,19,19,0,0,0-2.08.77,21.31,21.31,0,0,1-2.2.81l-.9.25-.91.23.06.2A4.41,4.41,0,0,1,57.51,6.73Zm4.68-1.58a5.83,5.83,0,0,1,2.28-.25,5.48,5.48,0,0,1,2.06.61,5.55,5.55,0,0,1,1.63,1.35,5.75,5.75,0,0,1,1,2,5.93,5.93,0,0,1,0,4.31,5.14,5.14,0,0,1-3.44,2.55,5.45,5.45,0,0,1-1.5.23,3.21,3.21,0,0,1-1.49-.33L61.05,10c-.19-.62-.37-1.23-.54-1.82s-.33-1.2-.46-1.81A5.76,5.76,0,0,1,62.19,5.15Z" transform="translate(0 0)"/><path class="cls-1" d="M74.72,2.18a1.15,1.15,0,0,1,.64.35,2,2,0,0,1,.36.76c.08.32.17.73.25,1.22l1,5.93c.08.5.14.91.16,1.24a1.77,1.77,0,0,1-.1.83,1.11,1.11,0,0,1-.47.54,3.89,3.89,0,0,1-1,.36l0,.21,1.27-.27,1.29-.23,1.35-.21,1.36-.17,0-.21a3.6,3.6,0,0,1-1.07,0,1.1,1.1,0,0,1-.63-.35,1.75,1.75,0,0,1-.36-.75,11.66,11.66,0,0,1-.25-1.22l-1-5.93A11,11,0,0,1,77.41,3a1.74,1.74,0,0,1,.09-.82A1.07,1.07,0,0,1,78,1.64a3.75,3.75,0,0,1,1-.35l0-.22-1.14.25q-.59.12-1.17.21c-.5.09-1,.16-1.45.23s-1,.13-1.46.18l0,.22A3.83,3.83,0,0,1,74.72,2.18Z" transform="translate(0 0)"/><path class="cls-1" d="M90.29,11.19a2.48,2.48,0,0,1-.83.41,4.19,4.19,0,0,1-1,.17,3,3,0,0,1-1.52-.3,5.21,5.21,0,0,1-1.32-.87,7.8,7.8,0,0,1-1.1-1.19,14.73,14.73,0,0,1-.85-1.26l-.23.13c.19.68.38,1.33.56,2s.34,1.3.48,2l.37-.15a1.18,1.18,0,0,1,.37-.09,2.91,2.91,0,0,1,.59.06l.83.14.94.14a5,5,0,0,0,.94,0,5.91,5.91,0,0,0,1.55-.28,3.63,3.63,0,0,0,1.24-.68,3,3,0,0,0,.82-1.09,3.4,3.4,0,0,0,.24-1.54A3.11,3.11,0,0,0,92,7.37a3.53,3.53,0,0,0-.84-1A5.33,5.33,0,0,0,90,5.65c-.43-.19-.87-.37-1.32-.53l-1.31-.48a7.23,7.23,0,0,1-1.15-.54,2.76,2.76,0,0,1-.83-.7,1.64,1.64,0,0,1-.35-1A1.43,1.43,0,0,1,85.61,1,3.36,3.36,0,0,1,87.27.57a3,3,0,0,1,1.31.2,4.32,4.32,0,0,1,1.12.65,5.13,5.13,0,0,1,.9,1,7.28,7.28,0,0,1,.67,1.11h.25c-.09-.51-.16-1-.2-1.53s-.08-1-.11-1.57a6.34,6.34,0,0,1-1.08,0l-1-.16-1-.14a7.74,7.74,0,0,0-1.2,0A3.86,3.86,0,0,0,85.57.3a3.23,3.23,0,0,0-1,.67,2.86,2.86,0,0,0-.68,1,2.88,2.88,0,0,0-.2,1.29,2.27,2.27,0,0,0,.6,1.51,4.91,4.91,0,0,0,1.35,1,12.87,12.87,0,0,0,1.72.72,16.21,16.21,0,0,1,1.72.69,5.18,5.18,0,0,1,1.35.92A2,2,0,0,1,91,9.5a2,2,0,0,1-.16,1A1.78,1.78,0,0,1,90.29,11.19Z" transform="translate(0 0)"/><path class="cls-1" d="M102.8,12.35c.6.11,1.19.22,1.75.34s1.15.23,1.75.37l0-.22a5.4,5.4,0,0,1-1.25-.49,1.27,1.27,0,0,1-.59-.78,4,4,0,0,1,0-1.46c.07-.61.2-1.44.39-2.5l.57-3.09c0-.31.11-.61.17-.91s.12-.59.19-.89c.43.67.91,1.44,1.44,2.3s1.08,1.78,1.63,2.77,1.12,2,1.67,3.12,1.06,2.2,1.53,3.34l.65.11L114.39,5a2.47,2.47,0,0,1,.69-1.48,2.39,2.39,0,0,1,1.65-.36l0-.22-1.16-.15-1.15-.19-1.25-.25L112,2.05l0,.21a2.22,2.22,0,0,1,1.08.57,2,2,0,0,1,.52,1,4.84,4.84,0,0,1,.06,1.46c0,.57-.14,1.24-.28,2l-.37,2.05c-.07.36-.13.71-.2,1.06s-.14.69-.2,1h0c-.17-.37-.42-.85-.73-1.44l-1-1.91q-.56-1-1.17-2.1t-1.14-2c-.35-.64-.67-1.2-.94-1.7s-.48-.86-.59-1.1c-.26,0-.52,0-.77-.09l-.77-.12-1.3-.25L102.89.4l0,.21a12.49,12.49,0,0,1,1.3.7,4.55,4.55,0,0,1,1.11.95l-1.69,8.09a2.58,2.58,0,0,1-.35.93,1.18,1.18,0,0,1-.54.45,1.87,1.87,0,0,1-.79.13l-1.08,0,0,.21,1,.13Z" transform="translate(0 0)"/><path class="cls-1" d="M116.54,15.24l1,.31,1,.34,6.35,2.35.59.23.57.27,2.79-2.82-.13-.22a13,13,0,0,1-1.71.94,6.57,6.57,0,0,1-1.61.48,5.84,5.84,0,0,1-1.67,0,10.48,10.48,0,0,1-1.87-.5,4.25,4.25,0,0,1-.5-.22c-.17-.08-.34-.16-.5-.25l-.45-.24L120,15.7,122,10.49l1.08.4a6.87,6.87,0,0,1,1.14.51,2.24,2.24,0,0,1,.7.62,1.88,1.88,0,0,1,.29.89,5.33,5.33,0,0,1,0,1.29l.2.08c.15-.41.29-.81.43-1.22s.28-.82.43-1.23.3-.79.46-1.19.32-.8.47-1.21l-.2-.07a2.48,2.48,0,0,1-1.47,1.39,3.53,3.53,0,0,1-2-.22c-.22-.09-.44-.16-.65-.23s-.44-.14-.66-.22l1.56-4.22c.81.22,1.61.48,2.4.77a7.55,7.55,0,0,1,1.18.55,3.27,3.27,0,0,1,.91.78,3,3,0,0,1,.55,1.11,4.72,4.72,0,0,1,.09,1.54l.25,0,.24-.86c.07-.27.15-.52.24-.77l.25-.67c0-.12.09-.23.14-.35s.1-.25.16-.37c-.82-.27-1.62-.55-2.41-.83s-1.59-.57-2.37-.86l-1.4-.51L122.74,5l-1-.42-1.08-.43-.08.2a3.72,3.72,0,0,1,.9.54,1.12,1.12,0,0,1,.37.62,1.86,1.86,0,0,1-.07.82c-.09.32-.22.72-.39,1.19l-2.08,5.64c-.18.48-.34.86-.48,1.16a1.91,1.91,0,0,1-.49.67,1.06,1.06,0,0,1-.66.24,3.75,3.75,0,0,1-1-.16Z" transform="translate(0 0)"/><path class="cls-1" d="M132.81,22a7.08,7.08,0,0,0,1.84,1.52,8.22,8.22,0,0,0,2.21.87c.82.2,1.66.39,2.51.56l1.26-2.18a1.54,1.54,0,0,1,.47-.55,1,1,0,0,1,.53-.2,1.37,1.37,0,0,1,.59.07,3.28,3.28,0,0,1,.66.27l.11-.19c-.4-.2-.8-.4-1.19-.62L140.64,21c-.42-.24-.79-.47-1.11-.67l-1.07-.67-.11.19c1.06.64,1.38,1.32,1,2l-1.15,2a4,4,0,0,1-1.69-.17,8.28,8.28,0,0,1-1.55-.7,3.55,3.55,0,0,1-1.36-1.3A4.3,4.3,0,0,1,133,20a5.55,5.55,0,0,1,.14-2,7.5,7.5,0,0,1,.81-2,6.94,6.94,0,0,1,1.27-1.6,5.92,5.92,0,0,1,1.65-1.15,4.85,4.85,0,0,1,1.84-.46,3.45,3.45,0,0,1,1.84.48,3.64,3.64,0,0,1,1.18,1,3.94,3.94,0,0,1,.6,1.28,6.18,6.18,0,0,1,.2,1.44c0,.51,0,1,0,1.52l.18.11c.07-.18.16-.43.28-.73s.24-.6.36-.93.26-.62.4-.91a7.45,7.45,0,0,1,.34-.69l-.56-.55c-.19-.19-.41-.4-.66-.62s-.53-.44-.85-.67a11.12,11.12,0,0,0-1.13-.72,6.1,6.1,0,0,0-2.28-.77,7.14,7.14,0,0,0-2.44.11,6.13,6.13,0,0,0-2.24,1,5.52,5.52,0,0,0-1.7,1.86,5.83,5.83,0,0,0-.56,5A6.31,6.31,0,0,0,132.81,22Z" transform="translate(0 0)"/><path class="cls-1" d="M143.54,28.15a1.48,1.48,0,0,1-.62-.11,3.75,3.75,0,0,1-.85-.45l-.14.16.74.53.71.55,4.1,3.34,1,.84,1,.87,3.62-2.26-.21-.17a13.35,13.35,0,0,1-1.8.52,5.1,5.1,0,0,1-1.59.11,4.62,4.62,0,0,1-1.51-.39,7.32,7.32,0,0,1-1.58-1,6.75,6.75,0,0,1-.67-.64c-.21-.23-.42-.48-.63-.73l5.45-6.7a6.09,6.09,0,0,1,.62-.67,1.07,1.07,0,0,1,.6-.3,1.73,1.73,0,0,1,.81.14,8.8,8.8,0,0,1,1.23.62l.13-.16-1.21-.92c-.41-.31-.8-.63-1.19-.95s-.72-.59-1.07-.89-.7-.61-1.05-.92l-.14.16a4.33,4.33,0,0,1,.66.79,1.07,1.07,0,0,1,.13.69,1.79,1.79,0,0,1-.33.77c-.18.27-.43.61-.75,1l-4.5,5.53A2.64,2.64,0,0,1,144,28,.89.89,0,0,1,143.54,28.15Z" transform="translate(0 0)"/><path class="cls-1" d="M152.72,36.43a3.57,3.57,0,0,1-.82-.62l-.16.15c.25.24.49.49.74.74l.71.76,4.51,5c.14.15.28.31.41.48s.26.34.38.51l3.79-1.2V42a12.94,12.94,0,0,1-2,0,6.61,6.61,0,0,1-1.65-.32A5.53,5.53,0,0,1,157.2,41a9,9,0,0,1-1.43-1.32,3.86,3.86,0,0,1-.34-.42c-.12-.15-.22-.3-.33-.45l-.28-.43a2.9,2.9,0,0,1-.21-.34l4.14-3.71.77.85a7.77,7.77,0,0,1,.76,1,2,2,0,0,1,.33.88,2,2,0,0,1-.15.92,5.12,5.12,0,0,1-.66,1.12l.15.16c.32-.29.64-.58,1-.88l.95-.88,1-.84,1-.85-.15-.16a2.42,2.42,0,0,1-1.94.54A3.52,3.52,0,0,1,160,35c-.16-.18-.31-.35-.47-.51s-.32-.32-.48-.5l3.35-3c.62.58,1.2,1.18,1.77,1.81a8,8,0,0,1,.78,1,3.23,3.23,0,0,1,.44,1.12,2.9,2.9,0,0,1,0,1.24,4.52,4.52,0,0,1-.64,1.4l.21.13c.23-.23.43-.45.62-.65a7.53,7.53,0,0,1,.57-.56l.53-.48.29-.25.31-.24-1.74-1.87c-.57-.61-1.14-1.24-1.7-1.86l-1-1.11c-.29-.32-.57-.63-.82-.93s-.5-.58-.74-.86-.48-.58-.75-.89l-.16.15a4,4,0,0,1,.54.89,1.06,1.06,0,0,1,0,.72,2,2,0,0,1-.45.7q-.34.36-.9.87l-4.48,4a10.06,10.06,0,0,1-1,.8,1.77,1.77,0,0,1-.74.37A1,1,0,0,1,152.72,36.43Z" transform="translate(0 0)"/><path class="cls-1" d="M167.47,46.38a14.26,14.26,0,0,1,.29,1.84,5.06,5.06,0,0,1-.1,1.62,2,2,0,0,1-.89,1.22,2.17,2.17,0,0,1-.94.38,1.87,1.87,0,0,1-.88-.13,2.78,2.78,0,0,1-.78-.5,4.49,4.49,0,0,1-.65-.78,3.08,3.08,0,0,1-.53-1.45,5.6,5.6,0,0,1,.08-1.58,7.67,7.67,0,0,1,.46-1.55,12.77,12.77,0,0,1,.65-1.38l-.23-.13-1.41,1.49c-.46.48-.95,1-1.45,1.42a3.33,3.33,0,0,0,.32.24,1.16,1.16,0,0,1,.26.28,3.74,3.74,0,0,1,.26.53c.08.24.19.5.3.79s.23.58.36.88a5.8,5.8,0,0,0,.45.82,6,6,0,0,0,1,1.19,3.74,3.74,0,0,0,1.22.72,3,3,0,0,0,1.36.14,3.43,3.43,0,0,0,1.45-.57,3.31,3.31,0,0,0,1-1,3.66,3.66,0,0,0,.43-1.24,5.22,5.22,0,0,0,0-1.37c-.05-.47-.13-.93-.21-1.4s-.18-.93-.26-1.38a7.35,7.35,0,0,1-.14-1.26,2.88,2.88,0,0,1,.19-1.08,1.68,1.68,0,0,1,.66-.8,1.41,1.41,0,0,1,1.49-.2,3.32,3.32,0,0,1,1.25,1.19,3.11,3.11,0,0,1,.49,1.22,4,4,0,0,1,0,1.3,4.94,4.94,0,0,1-.36,1.27,6.91,6.91,0,0,1-.62,1.14l.15.2c.39-.33.8-.65,1.21-1s.84-.6,1.29-.9a5.51,5.51,0,0,1-.51-1c-.14-.31-.27-.64-.4-1s-.27-.64-.41-1a8.87,8.87,0,0,0-.59-1,3.9,3.9,0,0,0-.9-1,3.05,3.05,0,0,0-1.1-.54,3,3,0,0,0-1.22-.06,2.85,2.85,0,0,0-1.21.48,2.29,2.29,0,0,0-1,1.3,4.74,4.74,0,0,0-.16,1.66A13.93,13.93,0,0,0,167.47,46.38Z" transform="translate(0 0)"/><path class="cls-1" d="M169.37,56.26a4.49,4.49,0,0,1-.91-.06,2.35,2.35,0,0,1-.83-.29,2.55,2.55,0,0,1-.74-.67l-.2.09c.19.34.36.66.52,1s.31.62.47,1,.31.67.46,1,.28.66.41,1l.2-.09a3.47,3.47,0,0,1-.1-.49,2.48,2.48,0,0,1,0-.61,1.42,1.42,0,0,1,.15-.58.88.88,0,0,1,.42-.41.53.53,0,0,1,.23-.06l.27,0,3.46-.33L174.78,60l-2.49,2.48-.2.21a.76.76,0,0,1-.23.18.88.88,0,0,1-1-.12,3.3,3.3,0,0,1-.89-1l-.2.1.28.49.26.49.29.58.36.76c.22.46.42.89.61,1.32s.37.85.56,1.3l.19-.1a2.48,2.48,0,0,1-.11-1.42,2.69,2.69,0,0,1,.7-1.11l7.68-7.81-.6-.56a3.56,3.56,0,0,1-.56-.63,1.49,1.49,0,0,1-.23.28,1,1,0,0,1-.22.18.53.53,0,0,1-.19,0h-.26l-8.24.49Zm9.24-.07-3.43,3.43-1.46-3Z" transform="translate(0 0)"/><path class="cls-1" d="M174.34,69.81a.92.92,0,0,1-.51-.12,1.52,1.52,0,0,1-.46-.43,3.84,3.84,0,0,1-.45-.85l-.2.06c.11.28.21.56.31.85s.19.56.28.85l1.53,5.07.36,1.25c.11.42.22.85.32,1.27l4.27.16-.08-.26a16.43,16.43,0,0,1-1.79-.58,5.25,5.25,0,0,1-1.37-.8,4.69,4.69,0,0,1-1-1.17,7.15,7.15,0,0,1-.74-1.71,5.93,5.93,0,0,1-.2-.91l-.12-.95,8.27-2.5a6.33,6.33,0,0,1,.89-.22,1.2,1.2,0,0,1,.66.09,1.75,1.75,0,0,1,.6.57,8.22,8.22,0,0,1,.66,1.21l.21-.07c-.17-.47-.33-1-.49-1.44s-.31-1-.46-1.45l-.39-1.34c-.12-.44-.23-.89-.35-1.35l-.2.06a3.79,3.79,0,0,1,.1,1,1,1,0,0,1-.28.64,1.77,1.77,0,0,1-.7.45c-.3.12-.7.26-1.18.4L175,69.69A2.66,2.66,0,0,1,174.34,69.81Z" transform="translate(0 0)"/><path class="cls-1" d="M182.24,80.09a6,6,0,0,0-2.52.86A5.83,5.83,0,0,0,178,82.62a6.06,6.06,0,0,0-.94,2.26,7.89,7.89,0,0,0-.09,2.62,7.66,7.66,0,0,0,.76,2.5,6.13,6.13,0,0,0,1.49,1.94,5.85,5.85,0,0,0,2.12,1.17,6.14,6.14,0,0,0,2.66.18,6,6,0,0,0,4.27-2.53,6.21,6.21,0,0,0,.93-2.26,8,8,0,0,0-.67-5.12A6.25,6.25,0,0,0,187,81.44a6,6,0,0,0-2.13-1.17A6.1,6.1,0,0,0,182.24,80.09Zm5.66,4a4.53,4.53,0,0,1,.52,4,4.72,4.72,0,0,1-1,1.64,5.46,5.46,0,0,1-1.64,1.16,6.67,6.67,0,0,1-2,.59,6.6,6.6,0,0,1-2.13-.05,5.49,5.49,0,0,1-1.88-.69,4.58,4.58,0,0,1-1.41-1.33,4.62,4.62,0,0,1-.52-4,4.72,4.72,0,0,1,1-1.64,5.46,5.46,0,0,1,1.64-1.16,6.75,6.75,0,0,1,2-.59,6.6,6.6,0,0,1,2.13,0,5.49,5.49,0,0,1,1.88.69A4.58,4.58,0,0,1,187.9,84.05Z" transform="translate(0 0)"/><path class="cls-1" d="M189.64,109.23c0-.39,0-.78,0-1.17s0-.84,0-1.26,0-.85,0-1.27h-.21a2.28,2.28,0,0,1-.36,1.16,1.89,1.89,0,0,1-.87.69,4.56,4.56,0,0,1-1.43.33c-.57.06-1.24.09-2,.1h-4.23v0c.34-.24.76-.57,1.28-1s1.08-.87,1.68-1.37,1.23-1,1.86-1.54l1.79-1.5,1.49-1.24c.44-.36.76-.62,1-.78,0-.26,0-.52-.06-.77s0-.51,0-.78c0-.5,0-.94,0-1.32s0-.78,0-1.2h-.21A13.56,13.56,0,0,1,189,97.7a4.87,4.87,0,0,1-.73,1.27L180,98.8a2.77,2.77,0,0,1-1-.16,1.15,1.15,0,0,1-.54-.45,2.06,2.06,0,0,1-.28-.75c0-.31-.11-.66-.18-1.07h-.21c0,.35,0,.69.06,1s0,.67,0,1c0,.61,0,1.21,0,1.78s0,1.17,0,1.79H178a6.33,6.33,0,0,1,.25-1.32,1.29,1.29,0,0,1,.66-.72,3.92,3.92,0,0,1,1.42-.32c.62-.05,1.47-.07,2.53-.08l3.15,0H187l.92,0c-.58.55-1.25,1.16-2,1.84s-1.56,1.39-2.43,2.13-1.79,1.47-2.76,2.21-2,1.45-3,2.12v.66l9.54-.06a2.47,2.47,0,0,1,1.58.41,2.32,2.32,0,0,1,.67,1.56h.21Z" transform="translate(0 0)"/><path class="cls-1" d="M2.64,155h0a.5.5,0,0,0,.46-.54,332.94,332.94,0,0,1-.62-51.94C3.91,82,6.48,72.37,9.91,64.25A91.13,91.13,0,0,1,22.85,42.69a.5.5,0,0,0-.08-.7.5.5,0,0,0-.7.07A92.07,92.07,0,0,0,9,63.86c-3.47,8.21-6.07,17.91-7.47,38.56a335,335,0,0,0,.62,52.1A.5.5,0,0,0,2.64,155Z" transform="translate(0 0)"/><rect class="cls-1" x="182.05" y="114.27" width="1" height="49.06"/><path class="cls-1" d="M1.08,167.14a4,4,0,1,0,4-3.95A4,4,0,0,0,1.08,167.14Z" transform="translate(0 0)"/><path class="cls-1" d="M16.45,204.1l0,0h0Z" transform="translate(0 0)"/><path class="cls-1" d="M16.44,199.83h0Z" transform="translate(0 0)"/><path class="cls-1" d="M181.81,169.85A79.93,79.93,0,0,1,168.68,197c-3.26,4.37-6.17,8.85-10.78,11.95-8.87,5.87-17,12.75-26.24,18.14a15.38,15.38,0,0,1-4.07,1.94c-6.29,2.75-13,3.37-19.76,4.22a173.44,173.44,0,0,1-25.36,1.12A34.42,34.42,0,0,1,72,232.7h0a90.85,90.85,0,0,1-30.26-13.5h0c-4.23-6.81-5.67-14.42-6.89-22.16-.65-4.13-3.44-7.41-6-10.69-.45-.57-1-1.06-1.81-.47s-.14,1.32.15,1.8a11.18,11.18,0,0,1,1.43,5.47c.26,5.58-.41,11.22,2.24,16.78-6.47-2.82-9.79-8.13-13.77-12.76A226.78,226.78,0,0,1,6.33,175.85l2.85,12.08c2.27,3.66,4.08,7.64,7.23,10.74h0l0,1.17h0c-.3,0-.71,0-.88-.16-4.73-4.83-10.21-9.07-12.79-15.6a5.58,5.58,0,0,0-.7-1.35,1.38,1.38,0,0,0-1.57-.64c-.73.28-.49.88-.39,1.52A32.63,32.63,0,0,0,3.51,193c2.93,6,6.66,11.33,13.52,13.61,4,1.61,8,3.13,11,6.65,3.49,4.14,8.36,6.59,13.17,9,3.76,2.28,6.13,6.38,10.63,7.77a41.59,41.59,0,0,1-13.72-2.76c-8.17-4.69-17.5-6.44-26.17-9.85-.44-.17-.94-.63-1.35-.07a1.22,1.22,0,0,0,.09,1.67c.91.79,1.94,1.45,2.91,2.18,2.95,2.21,6.6,3.09,9.77,5,4.51,2.68,8.8,5.91,14.14,7,2.91,1.24,5.81,2.49,9.11,1.64,8.57-2.21,17.07-2.24,25.47.76,3.84.43,7.66,1.06,11.51,1.26,9.41.47,18.76-.55,28.05-1.84,5.65-.78,11.45-1.31,16.62-4.09.48-.18,1-.32,1.42-.53,10.73-5.17,19.55-13.09,29.36-19.59a32.26,32.26,0,0,0,2.74-2.32c9-9.4,16.25-19.79,20.15-32.25ZM6.54,194.41l0,0a3.58,3.58,0,0,1,2.84,2c1.74,2.83,4.57,4.44,7,6.52h0c0,.39,0,.77,0,1.16v0A20.18,20.18,0,0,1,6.54,194.41ZM31,192.61c3.67,7,2.86,14.62,5.62,21.29C30.55,208.17,29.57,201,31,192.61Zm6.46,39c-2.67-1.39-5.56-2.33-8.09-4.06-2.37-1.64-5-2.89-8.08-4.61,6.59.18,10.8,5,16.51,5.75h0c3.77,2.75,8.52,2.24,12.92,3.49C46,234,41.73,233.17,37.46,231.6Z" transform="translate(0 0)"/><polygon class="cls-1" points="16.44 199.83 16.45 199.85 16.44 199.83 16.44 199.83"/></svg>