<svg xmlns="http://www.w3.org/2000/svg" viewBox="0 0 567.66 571.57"><defs><style>.cls-1{fill:#f2e2db;}</style></defs><g id="Layer_2" data-name="Layer 2"><g id="Fb"><path class="cls-1" d="M314.35,571.57,313.27,353h74.19l9.39-56H320.8v-7.5h7l-2.58-7.5h89.38l-14.42,86H328.34l.92,185.29C452.79,525.54,546,420.42,552.32,300.11c3.82-72.83-24.11-146.23-76.63-201.37C424.24,44.72,356.13,15,283.8,15h-1c-72.11.27-140,30.1-191.16,84-52,54.83-79.89,127.78-76.37,200.13,5.79,119.4,94.09,222.16,216,252.89V371h-67V283.94h7.5l33.53,0,24.62,0a180.29,180.29,0,0,1,1.53-60.95l.12-.61c3.36-17.09,10.34-52.65,36-77.35,31.28-30.07,83.63-37.61,136.6-19.69l5.09,1.72V202l-56.13,0A19.06,19.06,0,0,0,340,207.51c-7.67,7.23-11.73,21.05-11.73,40l-7.5,21.78-7.5-21.78c0-23.82,5.68-41.09,16.87-51.31A33.72,33.72,0,0,1,354.05,187H394.3V138c-45.84-14-90-7.3-116.3,17.94-22.28,21.42-28.42,52.65-31.72,69.42l-.12.62a166,166,0,0,0,0,64.11l1.74,8.94H238.8l-33.52,0-26,0V356h67V570.83l-9.1-2a311.91,311.91,0,0,1-92.7-36.55A304.27,304.27,0,0,1,70.83,471C28.36,422.5,3.32,361.71.31,299.87-3.4,223.45,25.93,146.47,80.79,88.68c54-56.9,125.74-88.4,202-88.68h1c76.48,0,148.44,31.36,202.76,88.4C541.9,146.51,571.33,224,567.29,300.9,564,363.79,538,425.27,494.08,474c-44.26,49.13-104.94,83.17-170.86,95.85ZM313.3,291.06V282h3.12Z"/></g></g></svg>