<svg xmlns="http://www.w3.org/2000/svg" viewBox="0 0 516 516"><defs><style>.cls-1{fill:#f2e2db;}</style></defs><g id="Layer_2" data-name="Layer 2"><g id="Ig"><path class="cls-1" d="M258,516A258,258,0,0,1,75.57,75.57,258,258,0,1,1,440.43,440.43,256.31,256.31,0,0,1,258,516Zm0-506C121.25,10,10,121.25,10,258S121.25,506,258,506,506,394.75,506,258,394.75,10,258,10Z"/><path class="cls-1" d="M258,342a84,84,0,1,1,84-84A84.09,84.09,0,0,1,258,342Zm0-153a69,69,0,1,0,69,69A69.07,69.07,0,0,0,258,189Z"/><path class="cls-1" d="M344.25,195.5a22.25,22.25,0,1,1,22.25-22.25A22.27,22.27,0,0,1,344.25,195.5Zm0-34.5a12.25,12.25,0,1,0,12.25,12.25A12.27,12.27,0,0,0,344.25,161Z"/><path class="cls-1" d="M323.89,417H190.11A94.22,94.22,0,0,1,96,322.89V183.11A94.22,94.22,0,0,1,190.11,89H323.89A94.22,94.22,0,0,1,418,183.11V322.89A94.22,94.22,0,0,1,323.89,417ZM190.11,104A79.2,79.2,0,0,0,111,183.11V322.89A79.2,79.2,0,0,0,190.11,402H323.89A79.2,79.2,0,0,0,403,322.89V183.11A79.2,79.2,0,0,0,323.89,104Z"/></g></g></svg>