<svg xmlns="http://www.w3.org/2000/svg" viewBox="0 0 534 534"><defs><style>.cls-1{fill:#f2e2db;}</style></defs><g id="Layer_2" data-name="Layer 2"><g id="Mail"><path class="cls-1" d="M267,534A267,267,0,0,1,78.2,78.2,267,267,0,0,1,455.8,455.8,265.25,265.25,0,0,1,267,534Zm0-524C125.29,10,10,125.29,10,267S125.29,524,267,524,524,408.71,524,267,408.71,10,267,10Z"/><path class="cls-1" d="M449,410H84V127H449ZM99,395H434V142H99Z"/><path class="cls-1" d="M265.61,316.11a7.52,7.52,0,0,1-5.31-2.2L86.2,139.8l10.6-10.6L265.63,298,436.22,129.17l10.56,10.66L270.88,313.94A7.5,7.5,0,0,1,265.61,316.11Z"/><rect class="cls-1" x="63.88" y="330.82" width="188.6" height="10" transform="translate(-191.13 210.21) rotate(-45)"/><rect class="cls-1" x="369.16" y="239.92" width="10" height="190.47" transform="translate(-127.4 362.73) rotate(-45)"/></g></g></svg>